STARTFONT 2.1
COMMENT Created by fdbbdf
FONT table12
SIZE 12 78 78
FONTBOUNDINGBOX 35 48 -10 -21
STARTPROPERTIES 4
Ownership "  "
FONT_ASCENT 27
FONT_DESCENT 21
DEFAULT_CHAR 32
ENDPROPERTIES
CHARS 22
STARTCHAR ch-3
ENCODING -1 3
SWIDTH 0 0
DWIDTH 0 0
BBX 1 1 0 -1
BITMAP
0000
ENDCHAR
STARTCHAR sp
ENCODING -1 32
SWIDTH 0 0
DWIDTH 17 0
BBX 0 0 0 0
BITMAP
ENDCHAR
STARTCHAR a
ENCODING -1 97
SWIDTH 0 0
DWIDTH 0 0
BBX 9 12 -7 -7
BITMAP
8180
c180
6180
3180
1980
0d80
0d80
1980
3180
6180
c180
8180
ENDCHAR
STARTCHAR b
ENCODING -1 98
SWIDTH 0 0
DWIDTH 0 0
BBX 9 12 -1 -7
BITMAP
c080
c180
c300
c600
cc00
d800
d800
cc00
c600
c300
c180
c080
ENDCHAR
STARTCHAR c
ENCODING -1 99
SWIDTH 0 0
DWIDTH 0 0
BBX 12 9 -5 -8
BITMAP
7ff0
7ff0
0000
0600
0f00
1980
30c0
6060
c030
ENDCHAR
STARTCHAR d
ENCODING -1 100
SWIDTH 0 0
DWIDTH 0 0
BBX 12 9 -5 -2
BITMAP
c030
6060
30c0
1980
0f00
0600
0000
fff0
fff0
ENDCHAR
STARTCHAR e
ENCODING -1 101
SWIDTH 0 0
DWIDTH 0 0
BBX 11 14 -5 -8
BITMAP
8020
c060
60c0
2080
3180
1100
1b00
1b00
0a00
0e00
0e00
0400
0400
0400
ENDCHAR
STARTCHAR f
ENCODING -1 102
SWIDTH 0 0
DWIDTH 0 0
BBX 21 12 -10 -7
BITMAP
00200000
1820c000
0c218000
06230000
03260000
ffaff800
ffaff800
03260000
06230000
0c218000
1820c000
00200000
ENDCHAR
STARTCHAR g
ENCODING -1 103
SWIDTH 0 0
DWIDTH 0 0
BBX 14 11 -6 -6
BITMAP
c000
6000
3800
0f00
03e0
007c
03e0
0f00
3800
6000
c000
ENDCHAR
STARTCHAR h
ENCODING -1 104
SWIDTH 0 0
DWIDTH 0 0
BBX 12 21 -5 -11
BITMAP
0600
0600
0600
4620
6660
36c0
1f80
0f00
0600
0000
fff0
0000
0600
0f00
1f80
36c0
6660
4620
0600
0600
0600
ENDCHAR
STARTCHAR i
ENCODING -1 105
SWIDTH 0 0
DWIDTH 0 0
BBX 25 28 0 -1
BITMAP
00000000
00000000
00000000
00001c00
00002200
00004100
00008080
0001e080
00027080
00049900
00091a00
00122c00
00244800
00489000
00912000
01224000
02448000
04890000
09120000
0e240000
12480000
13900000
20a00000
30c00000
7b000000
7c000000
f0000000
c0000000
ENDCHAR
STARTCHAR j
ENCODING -1 106
SWIDTH 0 0
DWIDTH 0 0
BBX 24 24 -3 -4
BITMAP
00003800
00004400
0000da00
00015d00
00024d00
0004a100
00091e00
00122400
00244800
00489000
00912000
01224000
02448000
04890000
09120000
1a240000
2c480000
4c900000
87200000
83c00000
80800000
41000000
62000000
1c000000
ENDCHAR
STARTCHAR k
ENCODING -1 107
SWIDTH 0 0
DWIDTH 0 0
BBX 23 12 -10 -6
BITMAP
0e000000
3f800000
7fc00000
7fc00000
fffffc00
f9e03200
f9e07000
fff0f000
7fffe000
7fffe000
3fffc000
0fff8000
ENDCHAR
STARTCHAR l
ENCODING -1 108
SWIDTH 0 0
DWIDTH 0 0
BBX 10 10 -4 -6
BITMAP
0c00
3f00
7f80
6180
e1c0
e1c0
6180
7f80
3f00
0c00
ENDCHAR
STARTCHAR m
ENCODING -1 109
SWIDTH 0 0
DWIDTH 0 0
BBX 18 18 -8 -10
BITMAP
c000c000
c000c000
c000c000
c000c000
c408c000
ce1cc000
c738c000
c3f0c000
c1e0c000
c1e0c000
c3f0c000
c738c000
ce1cc000
c408c000
c000c000
c000c000
c000c000
c000c000
ENDCHAR
STARTCHAR n
ENCODING -1 110
SWIDTH 0 0
DWIDTH 0 0
BBX 18 18 -8 -10
BITMAP
ffffc000
ffffc000
00000000
00000000
04080000
0e1c0000
07380000
03f00000
01e00000
01e00000
03f00000
07380000
0e1c0000
04080000
00000000
00000000
ffffc000
ffffc000
ENDCHAR
STARTCHAR o
ENCODING -1 111
SWIDTH 0 0
DWIDTH 0 0
BBX 16 16 -7 -9
BITMAP
f0f0
7878
3c3c
1e1e
0f0f
8787
c3c3
e1e1
f0f0
7878
3c3c
1e1e
0f0f
8787
c3c3
e1e1
ENDCHAR
STARTCHAR p
ENCODING -1 112
SWIDTH 0 0
DWIDTH 0 0
BBX 20 21 -10 -11
BITMAP
fffff000
fffff000
fffff000
e003f000
e003f000
e003f000
e0003000
e1ffb000
e1ffb000
e1ffb000
e1ffb000
e1ffb000
e1ffb000
e1ffb000
e1ffb000
fdffb000
fdffb000
fdffb000
fdffb000
fc003000
fffff000
ENDCHAR
STARTCHAR q
ENCODING -1 113
SWIDTH 0 0
DWIDTH 0 0
BBX 20 21 0 -21
BITMAP
fffff000
fffff000
eabff000
f57ff000
eabff000
f57ff000
eabff000
f56ab000
eab57000
f56ab000
eab57000
f56ab000
eab57000
f56ab000
eab57000
ffeab000
fff57000
ffeab000
fff57000
ffeab000
fffff000
ENDCHAR
STARTCHAR r
ENCODING -1 114
SWIDTH 0 0
DWIDTH 0 0
BBX 20 21 -10 -10
BITMAP
fffff000
fffff000
fffff000
c02ff000
dfb7f000
dfbaf000
dfbcf000
dfb8f000
dfbff000
dfbff000
dfa01000
dfafd000
c02fd000
ffefd000
ffefd000
ffefd000
ffefd000
ffefd000
ffefd000
ffe01000
fffff000
ENDCHAR
STARTCHAR s
ENCODING -1 115
SWIDTH 0 0
DWIDTH 0 0
BBX 16 16 0 -16
BITMAP
8080
0000
2020
0000
0808
0000
0202
0000
8080
0000
2020
0000
0808
0000
0202
0000
ENDCHAR
STARTCHAR t
ENCODING -1 116
SWIDTH 0 0
DWIDTH 24 0
BBX 21 21 -10 -11
BITMAP
fffff800
80200800
80200800
80200800
80200800
80200800
80200800
80200800
80000800
80000800
ff07f800
80000800
80000800
80200800
80200800
80200800
80200800
80200800
80200800
80200800
fffff800
ENDCHAR
ENDFONT
